<svg width="24" height="25" viewBox="0 0 24 25" fill="none" xmlns="http://www.w3.org/2000/svg">
<g clip-path="url(#clip0_42_446)">
<path d="M12.49 13.5015L11.56 11.6415C11.19 10.9015 11.49 10.0015 12.23 9.63147L12.49 9.50147L18.22 14.9615C18.72 15.4315 19 16.0915 19 16.7715V22.0015C19 23.3815 17.88 24.5015 16.5 24.5015H5.5C4.95 24.5015 4.5 24.0515 4.5 23.5015C4.5 22.9515 4.95 22.5015 5.5 22.5015H10V21.5015H4C3.45 21.5015 3 21.0515 3 20.5015C3 19.9515 3.45 19.5015 4 19.5015H10V18.5015H3C2.45 18.5015 2 18.0515 2 17.5015C2 16.9515 2.45 16.5015 3 16.5015H10V15.5015H4.5C3.95 15.5015 3.5 15.0515 3.5 14.5015C3.5 13.9515 3.95 13.5015 4.5 13.5015H12.49ZM14 13.7015V15.5015H12V22.5015H16C16.55 22.5015 17 22.0515 17 21.5015V16.9715C17 16.7015 16.89 16.4315 16.69 16.2415L14 13.7015ZM11.78 7.62147C10.94 8.02147 10.61 8.24147 10.15 8.81147L7.45 5.96147C7.07 5.56147 7.09 4.93147 7.49 4.55147C7.89 4.17147 8.52 4.19147 8.9 4.59147L11.78 7.62147ZM9.64 9.71147C9.41 10.2615 9.35 10.9515 9.44 11.5015H8.58L6.31 9.11147C5.93 8.71147 5.94 8.08147 6.35 7.70147C6.75 7.32147 7.38 7.34147 7.76 7.74147L9.64 9.71147ZM20.33 14.4115L21.21 13.5815C21.71 13.1115 22 12.4515 22 11.7615V3.85147L21.73 3.75147C20.95 3.47147 20.09 3.87147 19.81 4.65147L19.1 6.61147L13.6 0.811468C13.22 0.411468 12.59 0.391468 12.19 0.771468C11.79 1.15147 11.77 1.78147 12.15 2.18147L15.94 6.17147L15.21 6.86147L10.39 1.78147C10.01 1.38147 9.38 1.36147 8.98 1.74147C8.58 2.12147 8.56 2.75147 8.94 3.15147L12.72 7.13147L15.38 9.50147L17.31 7.63147L18.69 9.08147L20 7.84147V11.5415C20 11.8215 19.89 12.0815 19.69 12.2715L18.99 12.9315L19.6 13.5115C19.89 13.7815 20.13 14.0815 20.33 14.4115Z" fill="#4E57A9"/>
</g>
<defs>
<clipPath id="clip0_42_446">
<rect width="24" height="24" fill="white" transform="translate(0 0.5)"/>
</clipPath>
</defs>
</svg>
